<svg width="360" height="740" viewBox="0 0 360 740" fill="none" xmlns="http://www.w3.org/2000/svg">
  <rect width="360" height="740" rx="36" fill="#F8FAFC"/>
  <rect x="24" y="24" width="312" height="72" rx="18" fill="#E8F5E9"/>
  <rect x="40" y="44" width="160" height="16" rx="8" fill="#2E7D32"/>
  <rect x="40" y="66" width="118" height="10" rx="5" fill="#73A975"/>
  <rect x="24" y="116" width="312" height="580" rx="24" fill="#DBEAFE"/>
  <path d="M46 210C76 180 108 246 142 214C176 182 210 246 240 220C270 194 298 216 320 188" stroke="#93C5FD" stroke-width="18" stroke-linecap="round"/>
  <path d="M38 492C74 456 116 540 152 496C188 452 222 532 260 486C290 450 314 470 326 452" stroke="#93C5FD" stroke-width="18" stroke-linecap="round"/>
  <circle cx="98" cy="288" r="20" fill="#F57C00"/>
  <circle cx="98" cy="288" r="8" fill="#FFFFFF"/>
  <circle cx="190" cy="356" r="20" fill="#2E7D32"/>
  <circle cx="190" cy="356" r="8" fill="#FFFFFF"/>
  <circle cx="268" cy="252" r="20" fill="#2E7D32"/>
  <circle cx="268" cy="252" r="8" fill="#FFFFFF"/>
  <rect x="40" y="586" width="280" height="88" rx="16" fill="#FFFFFF"/>
  <rect x="56" y="606" width="146" height="12" rx="6" fill="#1F2937"/>
  <rect x="56" y="628" width="100" height="10" rx="5" fill="#6B7280"/>
  <rect x="224" y="606" width="80" height="30" rx="15" fill="#2E7D32"/>
</svg>
